<?xml version="1.0" encoding="utf-8"?>
<!-- Generator: Adobe Illustrator 23.0.5, SVG Export Plug-In . SVG Version: 6.00 Build 0)  -->
<svg version="1.1" id="Слой_1" xmlns="http://www.w3.org/2000/svg" xmlns:xlink="http://www.w3.org/1999/xlink" x="0px" y="0px"
	 viewBox="0 0 768.79 199.5" style="enable-background:new 0 0 768.79 199.5;" xml:space="preserve">
<style type="text/css">
	.st0{fill:#FFFFFF;}
</style>
<g>
	<g>
		<path class="st0" d="M200.34,100h13.72c2.83,0,5.3,0.19,7.41,0.57s4.08,1.17,5.9,2.37c2.11,1.38,3.79,3.19,5.03,5.44
			c1.24,2.25,1.85,4.64,1.85,7.15c0,4.76-2.16,8.66-6.48,11.72c3.06,1.24,5.43,3.16,7.12,5.76c1.69,2.6,2.53,5.59,2.53,9
			c0,2.67-0.64,5.21-1.93,7.63c-1.28,2.42-3.05,4.34-5.3,5.76c-1.6,0.98-3.24,1.7-4.92,2.15c-1.69,0.45-3.33,0.73-4.94,0.83
			s-3.68,0.17-6.21,0.19h-13.8V100H200.34z M212.54,125.04c2.54,0,4.66-0.1,6.38-0.31c1.72-0.2,3.28-0.69,4.73-1.43
			c1.39-0.73,2.53-1.86,3.41-3.39c0.88-1.53,1.33-3.12,1.33-4.77c0-1.58-0.44-3.11-1.31-4.59c-0.87-1.48-1.99-2.64-3.36-3.49
			c-1.3-0.76-2.8-1.24-4.5-1.45c-1.7-0.2-3.77-0.31-6.2-0.31h-6.83v19.74L212.54,125.04L212.54,125.04z M213.41,153.27
			c2.78,0,5.15-0.1,7.09-0.3c1.94-0.2,3.7-0.69,5.28-1.47c1.66-0.87,3.03-2.19,4.1-3.96c1.07-1.78,1.6-3.6,1.6-5.47
			c0-2.49-0.65-4.67-1.96-6.56c-1.3-1.87-3.08-3.21-5.34-4c-2.43-0.79-6.36-1.18-11.81-1.18h-6.2v22.93L213.41,153.27L213.41,153.27
			z"/>
		<path class="st0" d="M305.2,129.16c0,5.52-1.4,10.63-4.19,15.3s-6.58,8.37-11.34,11.08c-4.77,2.71-9.91,4.05-15.45,4.05
			c-5.41,0-10.49-1.34-15.25-4.02c-4.76-2.68-8.56-6.33-11.41-10.94c-2.85-4.61-4.27-9.64-4.27-15.06c0-5.55,1.39-10.66,4.17-15.31
			c2.78-4.66,6.55-8.35,11.31-11.05c4.77-2.71,9.9-4.06,15.44-4.06c5.44,0,10.55,1.34,15.31,4.02s8.57,6.32,11.41,10.92
			C303.78,118.69,305.2,123.7,305.2,129.16z M274.29,104.68c-4.5,0.01-8.69,1.14-12.56,3.38c-3.87,2.24-6.94,5.27-9.19,9.09
			c-2.25,3.82-3.39,7.96-3.39,12.43c0,4.42,1.16,8.5,3.48,12.23c2.32,3.73,5.42,6.69,9.3,8.88c3.89,2.19,8,3.29,12.36,3.29
			c3.37,0,6.58-0.64,9.64-1.92s5.75-3.05,8.06-5.33c2.31-2.28,4.11-4.92,5.4-7.95s1.94-6.22,1.94-9.62c0-4.41-1.14-8.49-3.43-12.23
			c-2.29-3.75-5.37-6.71-9.23-8.89c-3.86-2.19-7.98-3.28-12.37-3.28v-0.07H274.29z"/>
		<path class="st0" d="M309.47,100h6.09l14.36,51.04L343.95,100h5.54l14.03,50.97L377.88,100h6.09l-16.72,58.57h-7.68l-12.84-48.03
			l-12.93,48.03h-7.68L309.47,100z"/>
	</g>
	<g>
		<path class="st0" d="M418.96,99.14H428l21.4,49.85l21.32-49.85h9.03v58.57h-5.86v-52.07l-22.04,52.07h-4.99l-22.04-52.07v52.07
			h-5.86L418.96,99.14L418.96,99.14z"/>
		<path class="st0" d="M570.52,141.27c0.06,2.14,0.61,4.11,1.63,5.9c1.03,1.79,2.43,3.23,4.21,4.29c1.78,1.07,3.74,1.6,5.88,1.6
			c2.22,0,4.25-0.49,6.09-1.48c1.85-0.98,3.31-2.36,4.41-4.15c1.09-1.78,1.63-3.76,1.63-5.95c0-1.59-0.36-3.13-1.09-4.61
			c-0.73-1.48-1.72-2.73-2.95-3.72c-1.22-0.99-2.52-1.75-3.89-2.28c-1.36-0.53-3.08-1.06-5.15-1.59c-2.5-0.67-4.53-1.3-6.06-1.88
			c-1.54-0.58-2.96-1.44-4.26-2.56c-3.27-2.78-4.92-6.43-4.92-10.93c0-3.08,0.74-5.82,2.23-8.22c1.48-2.39,3.5-4.25,6.03-5.57
			c2.53-1.33,5.33-1.98,8.39-1.98c2.91,0,5.61,0.7,8.08,2.09c2.47,1.39,4.42,3.3,5.86,5.73c1.44,2.43,2.16,5.1,2.16,8.03h-6.09
			c-0.13-1.96-0.67-3.72-1.61-5.29c-0.95-1.57-2.21-2.77-3.77-3.64c-1.56-0.86-3.34-1.3-5.32-1.3c-1.85,0-3.54,0.46-5.09,1.38
			c-1.55,0.92-2.76,2.17-3.65,3.74c-0.89,1.57-1.34,3.26-1.34,5.1c0,2.18,0.53,3.93,1.59,5.27c1.06,1.33,2.37,2.34,3.96,3.01
			c1.58,0.69,3.59,1.36,6.03,2.03c3.08,0.85,5.36,1.56,6.83,2.13c1.47,0.57,2.95,1.52,4.43,2.87c1.72,1.48,3.07,3.31,4.03,5.5
			c0.96,2.19,1.44,4.44,1.44,6.79c0,3.14-0.82,6.03-2.46,8.65c-1.64,2.62-3.82,4.68-6.56,6.2c-2.74,1.51-5.68,2.26-8.82,2.26
			c-3.29,0-6.32-0.74-9.11-2.23c-2.78-1.48-4.98-3.56-6.61-6.23c-1.63-2.67-2.44-5.67-2.44-8.98L570.52,141.27L570.52,141.27z"/>
		<path class="st0" d="M616.01,104.4h-13.47v-5.3h32.64v5.3h-13.32v53.27h-5.86V104.4z"/>
		<path class="st0" d="M641.76,99.1h32.02v5.3h-26.16v21.09h25.29v5.3h-25.29v21.57h26.16v5.3h-32.02V99.1z"/>
		<path class="st0" d="M684.24,99.1h13.95c3.7,0,6.85,0.17,9.45,0.5c2.6,0.33,5,1.12,7.19,2.36c2.94,1.69,5.19,3.95,6.76,6.79
			c1.57,2.84,2.36,5.98,2.36,9.44c0,3.13-0.77,6.04-2.31,8.7c-1.54,2.66-3.64,4.79-6.29,6.4c-2.65,1.6-5.55,2.44-8.68,2.51
			l16.49,21.87h-7.28l-19.89-26.55h1.74c2.85,0,5.28-0.09,7.26-0.28c1.99-0.19,3.82-0.62,5.49-1.31c2.4-1.11,4.27-2.71,5.6-4.79
			c1.34-2.09,2-4.45,2-7.09c0-2.04-0.49-4.01-1.47-5.9c-0.98-1.89-2.31-3.42-3.99-4.56c-1.72-1.24-3.58-2.01-5.59-2.32
			s-4.56-0.46-7.64-0.46h-9.29v53.27h-5.86L684.24,99.1L684.24,99.1z"/>
		<g>
			<path class="st0" d="M517.36,91.46h7.35c8.95,5.67,12.16,11.49,13.39,15.92c2.2,7.94-1.61,12.75,2.14,18.93
				c3.44,5.67,8.42,4.61,12.19,9.71c2.62,3.54,4.52,9.9,0.65,22.16c-1.94,0.2-3.87,0.41-5.81,0.61c5.68-4.75,7.25-12.78,3.9-19.05
				c-3.04-5.7-9.59-8.88-16.19-7.78c-12.2,6.67-24.39,13.33-36.59,19.99c-0.83,1.92-1.65,3.84-2.49,5.76h-7.18L517.36,91.46z
				 M533.76,129.49c5.23-13.31,2.87-25.37-3.75-29.27c-1.29-0.76-4.12-2.02-8.98-1.14c-7.39,16.57-14.77,33.15-22.16,49.72
				C510.5,142.36,522.13,135.93,533.76,129.49z"/>
			
				<rect x="532.19" y="123.78" transform="matrix(0.8922 -0.4517 0.4517 0.8922 2.3025 259.9012)" class="st0" width="26.68" height="2.7"/>
			<polygon class="st0" points="558.68,123.79 554.26,115.06 564.04,115.6 			"/>
			
				<rect x="501.03" y="139.41" transform="matrix(0.5 -0.866 0.866 0.5 125.5847 506.4953)" class="st0" width="0.82" height="10.15"/>
			
				<rect x="504.42" y="137.24" transform="matrix(0.5 -0.866 0.866 0.5 129.1578 508.3439)" class="st0" width="0.82" height="10.15"/>
			
				<rect x="502.29" y="149.59" transform="matrix(0.3367 -0.9416 0.9416 0.3367 195.2944 577.2413)" class="st0" width="10.15" height="0.82"/>
			
				<rect x="497.69" y="151.3" transform="matrix(0.3367 -0.9416 0.9416 0.3367 190.6385 574.0359)" class="st0" width="10.15" height="0.82"/>
		</g>
	</g>
</g>
<g>
	<g>
		<path class="st0" d="M180.42,164.27c-6.57-6.57-8.34-19.4-10.38-34.26c-2.75-19.99-6.18-44.66-23.32-64.51l9.06-9.06h13.62
			c1.23,0,2.35-0.77,2.78-1.93l8.91-23.77c0.41-1.09,0.15-2.32-0.68-3.14c-0.83-0.83-2.04-1.09-3.14-0.69l-23.77,8.91
			c-1.16,0.44-1.93,1.54-1.93,2.78v13.62l-9.05,9.05C122.77,44.16,98.04,40.72,78,37.97c-14.86-2.04-27.68-3.8-34.26-10.37
			c-1.16-1.16-3.04-1.16-4.2,0c-0.58,0.58-0.87,1.34-0.87,2.11c0,0.41,0.09,0.81,0.26,1.19l-0.01,0.01l40.78,93.21l-3.64,3.64h-16.6
			c-0.79,0-1.54,0.32-2.11,0.87l-17.82,17.82c-0.84,0.85-1.1,2.12-0.64,3.24c0.45,1.11,1.54,1.84,2.75,1.84H56.5v14.86
			c0,1.21,0.72,2.29,1.84,2.75c0.36,0.16,0.75,0.22,1.14,0.22c0.77,0,1.53-0.31,2.11-0.87l17.82-17.82
			c0.56-0.56,0.87-1.31,0.87-2.11v-16.59l3.64-3.64l93.21,40.78l0.01-0.01c0.38,0.17,0.78,0.26,1.19,0.26
			c0.76,0,1.52-0.29,2.11-0.87c0.58-0.58,0.87-1.34,0.87-2.11C181.29,165.61,180.99,164.85,180.42,164.27z M157.52,40.67l15.72-5.9
			l-5.9,15.72h-9.82V40.67z M65.42,156.23l-2.97,2.97v-10.66c0-1.64-1.33-2.97-2.97-2.97H48.82l2.97-2.97h13.62L65.42,156.23
			L65.42,156.23z M74.33,147.32l-2.97,2.97v-10.66c0-1.64-1.33-2.97-2.97-2.97H57.73l2.97-2.97h13.62L74.33,147.32L74.33,147.32z
			 M164.16,130.83c0.35,2.54,0.69,5.04,1.05,7.46c-1.49-3.86-2.9-7.85-4.33-11.9c-3.56-10.07-7.45-20.94-13.22-31.32l4.4-10.99
			C159.72,99.15,162.07,115.7,164.16,130.83z M148.25,77.56l-4.46,11.15c-2.59-3.93-5.55-7.73-8.91-11.36l7.57-7.57
			C144.61,72.3,146.54,74.89,148.25,77.56z M138.26,65.56l-7.59,7.59c-3.9-3.62-7.98-6.74-12.22-9.46l11.95-3.99
			C133.1,61.43,135.72,63.38,138.26,65.56z M77.2,43.86c14.99,2.06,31.38,4.41,46.31,11.88l-11.83,3.94
			c-9.99-5.39-20.37-9.13-30.03-12.54c-4.05-1.44-8.05-2.85-11.9-4.34C72.16,43.17,74.65,43.51,77.2,43.86z M49.12,39.36
			c8.97,5.73,19.52,9.5,30.54,13.39c16.2,5.72,32.89,11.72,46.82,24.59L84.22,119.6L49.12,39.36z M88.42,123.8l42.25-42.25
			c12.87,13.92,18.86,30.61,24.59,46.82c3.9,11.02,7.67,21.58,13.39,30.55L88.42,123.8z"/>
	</g>
</g>
</svg>
