<svg
    xmlns="http://www.w3.org/2000/svg"
    viewBox="0 0 511 511"
    id="vector">
    <path
        id="path"
        d="M 147.925 379.116 C 125.568 377.974 125.989 346.528 147.924 345.436 C 210.059 345.652 373.945 345.494 438.056 345.539 C 455.591 345.539 470.593 333.606 474.537 316.522 L 510.941 158.881 C 513.026 149.855 510.922 140.513 505.17 133.252 C 499.418 125.991 490.807 121.768 481.544 121.768 C 455.753 121.768 236.828 120.777 124.695 120.33 L 106.92 54.377 C 102.653 38.616 88.27 27.609 71.942 27.609 L 15 27.609 C 6.716 27.609 0 34.325 0 42.609 C 0 50.893 6.716 57.609 15 57.609 L 71.942 57.609 C 74.753 57.609 77.228 59.504 77.959 62.201 L 146.224 315.477 C 134.221 315.913 123.041 320.795 114.563 329.397 C 105.655 338.437 100.871 350.403 101.092 363.092 C 101.534 388.469 122.543 409.115 147.925 409.115 L 169.797 409.115 C 166.546 415.939 164.721 423.568 164.721 431.616 C 164.721 460.566 188.273 484.118 217.223 484.118 C 246.173 484.118 269.725 460.566 269.725 431.616 C 269.725 423.567 267.899 415.939 264.648 409.115 L 359.364 409.115 C 356.116 415.937 354.291 423.562 354.291 431.608 C 354.291 460.558 377.844 484.11 406.793 484.11 C 435.743 484.11 459.296 460.557 459.296 431.608 C 459.296 423.249 457.322 415.345 453.832 408.323 C 459.768 406.324 464.048 400.725 464.048 394.116 C 464.048 385.832 457.332 379.116 449.048 379.116 Z M 239.724 431.617 C 239.724 444.025 229.63 454.119 217.222 454.119 C 204.814 454.119 194.72 444.025 194.72 431.617 C 194.72 419.216 204.804 409.126 217.203 409.116 L 217.241 409.116 C 229.64 409.126 239.724 419.216 239.724 431.617 Z M 406.794 454.111 C 394.387 454.111 384.292 444.016 384.292 431.609 C 384.292 419.324 394.19 409.313 406.429 409.116 L 407.16 409.116 C 419.4 409.313 429.298 419.324 429.298 431.609 C 429.297 444.016 419.202 454.111 406.794 454.111 Z M 481.654 151.878 C 481.743 151.99 481.73 152.043 481.711 152.129 L 466.372 218.554 L 414.43 218.554 L 423.275 151.531 L 481.424 151.765 C 481.513 151.767 481.566 151.767 481.654 151.878 Z M 327.009 315.538 L 327.009 248.554 L 380.211 248.554 L 371.371 315.538 Z M 252.627 315.538 L 243.715 248.554 L 297.009 248.554 L 297.009 315.538 Z M 183.574 315.538 L 183.527 315.538 C 179.871 315.537 176.65 313.071 175.699 309.558 L 159.257 248.554 L 213.45 248.554 L 222.362 315.538 Z M 239.723 218.555 L 230.702 150.756 L 297.008 151.023 L 297.008 218.555 Z M 327.009 218.555 L 327.009 151.144 L 393.031 151.41 L 384.17 218.555 Z M 200.421 150.633 L 209.458 218.554 L 151.171 218.554 L 132.791 150.36 Z M 438.056 315.538 L 401.63 315.538 L 410.47 248.554 L 459.443 248.554 L 445.306 309.771 C 444.522 313.167 441.541 315.538 438.056 315.538 Z"
        fill="#ffffff"
        stroke-width="1"/>
</svg>
