<svg
    xmlns="http://www.w3.org/2000/svg"
    viewBox="0 0 512 512"
    id="vector">
    <path
        id="path"
        d="M 508.875 493.792 C 485.292 470.209 478.958 424.148 471.625 370.805 C 461.78 299.05 449.447 210.462 387.896 139.195 L 420.417 106.675 L 469.334 106.675 C 473.772 106.675 477.751 103.915 479.313 99.758 L 511.313 14.427 C 512.792 10.51 511.834 6.094 508.875 3.136 C 505.917 0.178 501.542 -0.801 497.583 0.688 L 412.25 32.687 C 408.083 34.25 405.333 38.229 405.333 42.676 L 405.333 91.592 L 372.841 124.083 C 301.924 62.618 213.112 50.251 141.187 40.374 C 87.854 33.042 41.792 26.708 18.208 3.136 C 14.041 -1.031 7.291 -1.031 3.125 3.136 C 1.042 5.219 0 7.948 0 10.678 C 0 12.135 0.346 13.571 0.94 14.929 L 147.314 349.607 L 134.25 362.67 L 74.667 362.67 C 71.834 362.67 69.125 363.795 67.125 365.795 L 3.125 429.794 C 0.083 432.846 -0.833 437.429 0.812 441.419 C 2.457 445.409 6.354 448.002 10.666 448.002 L 64 448.002 L 64 501.334 C 64 505.646 66.604 509.542 70.583 511.188 C 71.896 511.74 73.291 512.001 74.666 512.001 C 77.437 512.001 80.166 510.918 82.208 508.876 L 146.208 444.877 C 148.208 442.877 149.333 440.169 149.333 437.335 L 149.333 377.753 L 162.396 364.691 C 209.448 385.269 497.084 511.064 497.084 511.064 C 498.449 511.658 499.881 512 501.334 512 C 504.063 512 506.792 510.958 508.876 508.875 C 510.959 506.792 512.001 504.063 512.001 501.333 C 512 498.604 510.958 495.875 508.875 493.792 Z M 117.333 443.583 L 96 464.917 L 96 416 L 47.083 416 L 68.416 394.667 L 106.666 394.667 C 112.562 394.667 117.333 399.438 117.333 405.334 L 117.333 443.583 Z M 37.474 45.336 C 69.677 65.897 107.564 79.423 147.125 93.406 C 205.301 113.963 265.234 135.495 315.217 181.699 L 163.505 333.411 L 37.474 45.336 Z M 178.589 348.495 L 330.301 196.783 C 376.505 246.766 398.037 306.688 418.584 364.855 C 432.575 404.425 446.105 442.32 466.667 474.528 L 178.589 348.495 Z"
        fill="#ff0000"
        stroke-width="1"/>
</svg>
